IKResults
version=1
nRows=11
nColumns=63
inDegrees=yes

Units are S.I. units (second, meters, Newtons, ...)
If the header above contains a line with 'inDegrees', this indicates whether rotational values are in degrees (yes) or radians (no).

endheader
time	pelvis_tilt	pelvis_list	pelvis_rotation	pelvis_tx	pelvis_ty	pelvis_tz	hip_flexion_r	hip_adduction_r	hip_rotation_r	knee_angle_r	knee_angle_r_beta	ankle_angle_r	subtalar_angle_r	mtp_angle_r	hip_flexion_l	hip_adduction_l	hip_rotation_l	knee_angle_l	knee_angle_l_beta	ankle_angle_l	subtalar_angle_l	mtp_angle_l	L5_S1_Flex_Ext	L5_S1_Lat_Bending	L5_S1_axial_rotation	L4_L5_Flex_Ext	L4_L5_Lat_Bending	L4_L5_axial_rotation	L3_L4_Flex_Ext	L3_L4_Lat_Bending	L3_L4_axial_rotation	L2_L3_Flex_Ext	L2_L3_Lat_Bending	L2_L3_axial_rotation	L1_L2_Flex_Ext	L1_L2_Lat_Bending	L1_L2_axial_rotation	L1_T12_Flex_Ext	L1_T12_Lat_Bending	L1_T12_axial_rotation	Abs_r3	Abs_r2	Abs_r1	Abs_t1	Abs_t2	neck_flexion	neck_bending	neck_rotation	arm_flex_r	arm_add_r	arm_rot_r	elbow_flex_r	pro_sup_r	wrist_flex_r	wrist_dev_r	arm_flex_l	arm_add_l	arm_rot_l	elbow_flex_l	pro_sup_l	wrist_flex_l	wrist_dev_l
      2.03333333	     22.27780050	     -8.25259818	      0.16575933	     -1.63224367	      0.70531472	     -0.35817224	     44.69470876	     -2.62296338	      7.78414147	     78.94175656	      1.37779357	     20.95081491	    -18.32685331	      0.00000000	     52.46774355	    -21.88828387	     20.95275588	     86.35136354	      1.50711561	     20.53896472	    -10.43088433	      0.00000000	    -11.62982006	      0.73811221	      1.06229272	    -21.59773883	      0.98168923	      1.12868602	    -19.10663137	      1.79464602	      1.12868602	    -13.29172135	      1.79464602	      0.92950613	    -10.79945091	      1.50515841	      0.86311284	     -6.64527918	      1.14333581	      0.79671954	    -83.07064170	      8.34967290	      5.90815344	      0.00000000	      0.00000000	     28.48339325	      0.18503818	     -4.98500385	    -29.63454306	    -33.38355755	    -23.88554297	    107.78292942	     89.99559364	      0.00000000	      0.00000000	    -29.24910440	    -24.22760624	    -17.75833444	    102.43981928	     89.99559364	      0.00000000	      0.00000000
      2.06666667	     23.32424030	     -7.57546857	      0.48225424	     -1.62056237	      0.71599115	     -0.35768301	     41.99164213	     -2.68970265	      8.68373474	     78.44002161	      1.36903664	     21.93607703	    -18.42227271	      0.00000000	     49.19936828	    -21.69293271	     20.06970140	     85.69248179	      1.49561595	     21.84196791	     -9.59659999	      0.00000000	    -11.90394070	      0.66171842	      1.07409214	    -22.10680828	      0.88008550	      1.14122290	    -19.55698418	      1.60890216	      1.14122290	    -13.60501383	      1.60890216	      0.93983062	    -11.05399934	      1.34937620	      0.87269987	     -6.80191172	      1.02500183	      0.80556911	    -85.02865803	      7.48549110	      5.97377827	      0.00000000	      0.00000000	     28.49509194	     -0.38881876	     -9.41203204	    -28.02021658	    -32.20657984	    -22.32009256	    104.17340878	     89.99559364	      0.00000000	      0.00000000	    -27.30586212	    -23.59605675	    -17.10926406	     98.22728854	     89.99559364	      0.00000000	      0.00000000
      2.10000000	     24.44911620	     -6.14462868	      0.34839275	     -1.60853396	      0.72744186	     -0.35577659	     39.30499117	     -3.16981579	     10.21926308	     78.02002489	      1.36170632	     22.95286383	    -18.54998705	      0.00000000	     45.18888780	    -21.23179338	     18.23296810	     84.60625196	      1.47665766	     22.82536700	     -9.07922153	      0.00000000	    -12.17487894	      0.46777773	      1.05418488	    -22.60996768	      0.62214437	      1.12007144	    -20.00210861	      1.13735476	      1.12007144	    -13.91466914	      1.13735476	      0.92241177	    -11.30559258	      0.95389234	      0.85652522	     -6.95672583	      0.72458770	      0.79063866	    -86.96394277	      5.29159518	      5.86306006	      0.00000000	      0.00000000	     28.50433908	     -1.96832325	    -16.94813235	    -25.91328121	    -30.16345288	    -20.64121301	     99.71249474	     89.99559364	      0.00000000	      0.00000000	    -25.24676992	    -23.47281199	    -16.85551325	     94.14816944	     89.99559364	      0.00000000	      0.00000000
      2.13333333	     25.61843515	     -4.63954812	      0.36565971	     -1.59610889	      0.73948076	     -0.35380938	     36.39397186	     -3.91940791	     11.58148438	     77.42315562	      1.35128898	     23.91647421	    -18.63585529	      0.00000000	     41.08563123	    -20.53306649	     16.45858213	     83.21654933	      1.45240278	     23.55862280	     -8.54956583	      0.00000000	    -12.42971331	      0.28938233	      1.00478309	    -23.08322058	      0.38487850	      1.06758203	    -20.42077599	      0.70360420	      1.06758203	    -14.20591934	      0.70360420	      0.87918520	    -11.54223178	      0.59010845	      0.81638626	     -7.10233818	      0.44825323	      0.75358732	    -88.78419917	      3.27355081	      5.58830211	      0.00000000	      0.00000000	     28.51068436	     -3.32747827	    -23.94864126	    -23.68099537	    -27.91604310	    -19.13603905	     94.87788827	     89.99559364	      0.00000000	      0.00000000	    -23.01616445	    -23.53196929	    -16.47911901	     89.90138651	     89.99559364	      0.00000000	      0.00000000
      2.16666667	     27.15841253	     -3.29414261	      0.77912405	     -1.58313883	      0.75221085	     -0.35230890	     32.78094418	     -4.91108492	     12.30325946	     76.57231559	      1.33643902	     25.01919982	    -18.71034240	      0.00000000	     36.73071756	    -19.66574436	     15.21832914	     81.66138886	      1.42526011	     24.32324655	     -7.71362277	      0.00000000	    -12.69813907	      0.16855467	      0.88948909	    -23.58171406	      0.22417771	      0.94508216	    -20.86177267	      0.40982382	      0.94508216	    -14.51270314	      0.40982382	      0.77830296	    -11.79149194	      0.34371668	      0.72270989	     -7.25571666	      0.26109118	      0.66711682	    -90.70153753	      1.90672412	      4.94707148	      0.00000000	      0.00000000	     28.51962231	     -3.63602689	    -27.95666931	    -21.29759040	    -25.87514119	    -17.68247030	     89.93719655	     89.99559364	      0.00000000	      0.00000000	    -20.90622761	    -23.55982880	    -16.02148203	     85.61525874	     89.99559364	      0.00000000	      0.00000000
      2.20000000	     28.52189951	     -1.75229491	      0.58497385	     -1.57027497	      0.76490975	     -0.35018824	     29.48787388	     -5.95043602	     13.40538476	     75.67222557	      1.32072949	     25.90931308	    -18.68226299	      0.00000000	     32.24621198	    -18.78634453	     13.41435082	     79.81854787	      1.39309646	     24.58444782	     -7.56572149	      0.00000000	    -12.94676971	     -0.01558241	      0.80799699	    -24.04344603	     -0.02072460	      0.85849680	    -21.27024796	     -0.03788706	      0.85849680	    -14.79686310	     -0.03788706	      0.70699736	    -12.02237035	     -0.03177564	      0.65649755	     -7.39778421	     -0.02413715	      0.60599774	    -92.47748137	     -0.17627130	      4.49383684	      0.00000000	      0.00000000	     28.52314336	     -5.11070953	    -34.42217670	    -18.88897917	    -23.52286425	    -16.69813728	     84.56997334	     89.99559364	      0.00000000	      0.00000000	    -18.83482137	    -23.56740346	    -16.08910470	     81.80065717	     89.99559364	      0.00000000	      0.00000000
      2.23333333	     29.97972287	     -0.64656170	      0.45027773	     -1.55708643	      0.77710771	     -0.34854312	     26.01998196	     -6.85296373	     13.92163703	     74.65430640	      1.30296345	     26.74278449	    -18.64785174	      0.00000000	     27.88978334	    -18.15207677	     12.07735344	     78.03358462	      1.36194298	     24.92062965	     -7.19618048	      0.00000000	    -13.15909725	     -0.14295158	      0.73835337	    -24.43775951	     -0.19012560	      0.78450046	    -21.61908088	     -0.34757248	      0.78450046	    -15.03953225	     -0.34757248	      0.64605920	    -12.21953771	     -0.29150687	      0.59991212	     -7.51910817	     -0.22143200	      0.55376503	    -93.99411578	     -1.61709689	      4.10649996	      0.00000000	      0.00000000	     28.52873241	     -5.75498788	    -38.03472786	    -16.66390215	    -21.69981600	    -15.66193320	     79.26717713	     89.99559364	      0.00000000	      0.00000000	    -17.02381991	    -23.41909264	    -15.95463447	     78.11565125	     89.99559364	      0.00000000	      0.00000000
      2.26666667	     31.36086888	      0.08857553	      0.09580249	     -1.54380573	      0.78859085	     -0.34705070	     22.71593773	     -7.50157494	     14.21982331	     73.60117586	      1.28458285	     27.38123810	    -18.57021139	      0.00000000	     23.69308099	    -17.86920780	     10.80668540	     76.28020881	      1.33134080	     25.21832059	     -6.79350160	      0.00000000	    -13.32202762	     -0.24923837	      0.71034152	    -24.74033750	     -0.33148703	      0.75473787	    -21.88675918	     -0.60599816	      0.75473787	    -15.22574537	     -0.60599816	      0.62154883	    -12.37083485	     -0.50824688	      0.57715249	     -7.61220658	     -0.38607023	      0.53275614	    -95.15791112	     -2.81943424	      3.95070645	      0.00000000	      0.00000000	     28.53408850	     -6.12179816	    -40.20381330	    -14.61186051	    -20.35785586	    -14.42434157	     73.92898304	     89.99559364	      0.00000000	      0.00000000	    -15.47133011	    -23.12017011	    -15.82847134	     74.67463213	     89.99559364	      0.00000000	      0.00000000
      2.30000000	     32.36612212	      0.45740122	     -0.76660940	     -1.53062584	      0.79904471	     -0.34557968	     20.07069465	     -7.81874902	     14.63795917	     72.59396221	      1.26700366	     27.70505659	    -18.42125438	      0.00000000	     19.86735117	    -17.93309367	      9.31015631	     74.58520490	      1.30175740	     25.31108739	     -6.71139159	      0.00000000	    -13.40371290	     -0.36413404	      0.74634548	    -24.89203523	     -0.48429828	      0.79299208	    -22.02095993	     -0.88535551	      0.79299208	    -15.31910348	     -0.88535551	      0.65305230	    -12.44668780	     -0.74254214	      0.60640571	     -7.65888155	     -0.56404363	      0.55975911	    -95.74138090	     -4.11915712	      4.15094967	      0.00000000	      0.00000000	     28.53790565	     -6.55685033	    -41.88397553	    -12.70340760	    -19.38575969	    -13.11001645	     68.55397484	     89.99559364	      0.00000000	      0.00000000	    -14.16377856	    -22.55530376	    -15.90499467	     71.42885329	     89.99559364	      0.00000000	      0.00000000
      2.33333333	     32.93195004	      0.43918188	     -1.97014704	     -1.51748665	      0.80850364	     -0.34427050	     18.09450683	     -7.82825113	     15.11694462	     71.62643597	      1.25011714	     27.81116775	    -18.15204604	      0.00000000	     16.51483092	    -18.31060741	      7.65722364	     72.95738434	      1.27334657	     25.33147047	     -6.77325672	      0.00000000	    -13.39401409	     -0.47252173	      0.82566368	    -24.87402357	     -0.62845390	      0.87726766	    -22.00502575	     -1.14888933	      0.87726766	    -15.30801871	     -1.14888933	      0.72245572	    -12.43768149	     -0.96356631	      0.67085174	     -7.65333965	     -0.73193616	      0.61924776	    -95.67210327	     -5.34526028	      4.59209368	      0.00000000	      0.00000000	     28.54111486	     -6.91220242	    -42.69478260	    -10.88046987	    -18.83613172	    -11.49166740	     63.18158732	     89.99559364	      0.00000000	      0.00000000	    -13.10023360	    -21.77677580	    -16.05386664	     68.15021895	     89.99559364	      0.00000000	      0.00000000
      2.36666667	     32.94307716	      0.10985262	     -3.46305790	     -1.50441182	      0.81715333	     -0.34306830	     16.86341979	     -7.57711642	     15.69066361	     70.68265592	      1.23364507	     27.70645849	    -17.80280955	      0.00000000	     13.71895897	    -18.93161201	      5.80662909	     71.34859603	      1.24526792	     25.25942244	     -6.90900912	      0.00000000	    -13.28520150	     -0.57731669	      0.92649868	    -24.67194770	     -0.76783120	      0.98440485	    -21.82625754	     -1.40368780	      0.98440485	    -15.18365679	     -1.40368780	      0.81068635	    -12.33663811	     -1.17726420	      0.75278018	     -7.59116414	     -0.89426356	      0.69487401	    -94.89486577	     -6.53072188	      5.15290772	      0.00000000	      0.00000000	     28.54323251	     -7.35916546	    -42.99796183	     -9.02831630	    -18.64362221	     -9.39533028	     57.79374610	     89.99559364	      0.00000000	      0.00000000	    -12.23177290	    -20.83790079	    -16.24885947	     64.57808345	     89.99559364	      0.00000000	      0.00000000
